<?xml version="1.0" encoding="UTF-8"?>
<svg width="898px" height="40px" viewBox="0 0 898 40" version="1.1" xmlns="http://www.w3.org/2000/svg" xmlns:xlink="http://www.w3.org/1999/xlink">
    <!-- Generator: Sketch 53.2 (72643) - https://sketchapp.com -->
    <title>LOGOS</title>
    <desc>Created with Sketch.</desc>
    <g id="COVER" stroke="none" stroke-width="1" fill="none" fill-rule="evenodd">
        <g id="TEQUILA" transform="translate(-271.000000, -807.000000)" fill="#FFFFFF">
            <g id="LOGOS" transform="translate(271.000000, 807.000000)">
                <path d="M617.042169,17.9424779 C619.181928,18.8053097 623.595181,20.6637168 623.662048,26.3716814 C623.662048,31.5486726 619.984337,35 614.501205,35 C610.823494,35 608.81747,33.6061947 607.881325,32.5442478 L607.680723,32.4115044 L607.680723,34.1371681 L603,34.1371681 L603,24.1814159 L607.948193,24.1814159 L607.948193,24.3141593 C608.148795,25.3761062 608.28253,26.2389381 608.81747,27.300885 C610.154819,30.0884956 612.562048,30.420354 613.56506,30.420354 C615.571084,30.420354 617.577108,29.3584071 617.577108,26.8362832 C617.577108,24.5132743 615.437349,23.5840708 614.434337,23.119469 C613.498193,22.7212389 612.628916,22.3893805 611.759639,22.0575221 C611.024096,21.7920354 610.288554,21.5265487 609.553012,21.1946903 C606.477108,19.9336283 603.26747,18.0088496 603.26747,13.2964602 C603.26747,7.58849558 607.881325,5 612.027108,5 C614.701807,5 616.908434,5.79646018 618.045181,7.38938053 L618.245783,7.92035398 L618.245783,6.32743363 L622.926506,6.32743363 L622.926506,15.6858407 L617.911446,15.6858407 L617.911446,15.3539823 C617.844578,14.5575221 617.643976,12.8318584 616.507229,11.5044248 C615.637952,10.4424779 614.233735,9.84513274 612.695783,9.84513274 C610.288554,9.84513274 609.218675,11.3716814 609.218675,12.7654867 C609.218675,14.5575221 610.890361,15.5530973 612.495181,16.2168142 C613.56506,16.6814159 614.63494,17.079646 615.704819,17.4778761 L615.771687,17.4778761 L617.042169,17.9424779 Z M627.072289,12.9646018 L627.072289,8.98230088 L636.433735,8.98230088 L636.433735,12.9646018 L634.427711,12.9646018 L634.427711,27.5663717 L636.433735,27.5663717 L636.433735,31.5486726 L627.072289,31.5486726 L627.072289,27.5663717 L629.078313,27.5663717 L629.078313,12.9646018 L627.072289,12.9646018 Z M639.108434,16.9469027 L639.108434,8.98230088 L654.487952,8.98230088 L654.487952,12.7654867 L644.324096,27.5663717 L649.807229,27.5663717 L649.807229,22.920354 L653.819277,22.920354 L653.819277,31.5486726 L638.439759,31.5486726 L638.439759,27.8318584 L647.93494,12.9646018 L643.120482,12.9646018 L643.120482,16.9469027 L639.108434,16.9469027 Z M657.162651,16.9469027 L657.162651,8.98230088 L672.542169,8.98230088 L672.542169,12.7654867 L662.645783,27.5663717 L668.53012,27.5663717 L668.53012,22.920354 L672.542169,22.920354 L672.542169,31.5486726 L657.162651,31.5486726 L657.162651,27.8318584 L666.925301,12.9646018 L661.843373,12.9646018 L661.843373,16.9469027 L657.162651,16.9469027 Z M686.584337,27.5663717 L686.584337,22.920354 L691.26506,22.920354 L691.26506,31.5486726 L675.885542,31.5486726 L675.885542,27.5663717 L677.891566,27.5663717 L677.891566,12.9646018 L675.885542,12.9646018 L675.885542,8.98230088 L684.578313,8.98230088 L684.578313,12.9646018 L682.572289,12.9646018 L682.572289,27.5663717 L686.584337,27.5663717 Z M709.319277,15.619469 L709.319277,10.3097345 L702.63253,10.3097345 L702.63253,16.9469027 L708.650602,16.9469027 L708.650602,21.5929204 L702.63253,21.5929204 L702.63253,29.5575221 L709.319277,29.5575221 L709.319277,23.5840708 L714,23.5840708 L714,34.2035398 L693.939759,34.2035398 L693.939759,29.5575221 L696.614458,29.5575221 L696.614458,10.3097345 L693.939759,10.3097345 L693.939759,5.66371681 L714,5.66371681 L714,15.619469 L709.319277,15.619469 Z" id="Sizzle"></path>
                <path d="M764,33.5591604 L771.529022,33.5591604 C779.935502,33.5591604 785.125763,29.1128325 785.125763,20.5139076 C785.125763,12.6138095 779.095289,7.9107101 771.529022,7.9107101 L764,7.9107101 L764,33.5591604 Z M767.654949,11.1436958 L771.931472,11.1436958 C777.194774,11.1436958 781.251207,14.6718713 781.251207,20.6617457 C781.251207,27.2760414 777.779585,30.3256884 771.492743,30.3256884 L767.654949,30.3256884 L767.654949,11.1436958 Z M789.0365,24.1891431 C789.0365,18.4934861 792.837532,14.3778486 798.539079,14.3778486 C804.204347,14.3778486 808.005862,18.4934861 808.005862,24.1891431 C808.005862,29.5536234 804.131306,33.9999514 798.539079,33.9999514 C792.910573,33.9999514 789.0365,29.5536234 789.0365,24.1891431 Z M792.69145,24.1891431 C792.69145,27.5325211 794.482162,31.2070758 798.539079,31.2070758 C802.559717,31.2070758 804.350429,27.5325211 804.350429,24.1891431 C804.350429,20.6244944 802.194512,17.1707242 798.539079,17.1707242 C794.847851,17.1707242 792.69145,20.6244944 792.69145,24.1891431 Z M812.610779,33.5591604 L812.610779,6 L816.046606,6 L816.046606,17.3908279 L816.119647,17.3908279 C817.179466,15.6639428 819.043703,14.3776541 822.296202,14.3776541 C827.706069,14.3776541 830.336994,18.823982 830.336994,23.8582581 C830.336994,29.0024402 827.961954,33.9997568 822.332964,33.9997568 C819.006941,33.9997568 816.887302,32.3098313 815.973565,30.9141229 L815.90004,30.9141229 L815.90004,33.5591604 L812.610779,33.5591604 Z M826.682528,24.1150296 C826.755569,20.7346921 825.293783,17.1705296 821.565309,17.1705296 C817.837318,17.1705296 816.046606,20.7346921 816.046606,24.2254218 C816.046606,27.3489879 817.654474,31.2068813 821.52903,31.2068813 C825.220742,31.2068813 826.755569,27.0547706 826.682528,24.1150296 Z M834.942685,33.5591604 L834.942685,6 L838.378511,6 L838.378511,17.3908279 L838.451069,17.3908279 C839.510404,15.6639428 841.375609,14.3776541 844.628107,14.3776541 C850.037491,14.3776541 852.668899,18.823982 852.668899,23.8582581 C852.668899,29.0024402 850.292892,33.9997568 844.664386,33.9997568 C841.338846,33.9997568 839.219208,32.3098313 838.305471,30.9141229 L838.23243,30.9141229 L838.23243,33.5591604 L834.942685,33.5591604 Z M849.014434,24.1150296 C849.087475,20.7346921 847.625688,17.1705296 843.897214,17.1705296 C840.16874,17.1705296 838.378511,20.7346921 838.378511,24.2254218 C838.378511,27.3489879 839.98638,31.2068813 843.860936,31.2068813 C847.552164,31.2068813 849.087475,27.0547706 849.014434,24.1150296 Z M857.493471,10.6297152 L857.493471,6.73486231 L861.368027,6.73486231 L861.368027,10.6297152 L857.493471,10.6297152 Z M857.712594,33.5592091 L857.712594,14.8187854 L861.148421,14.8187854 L861.148421,33.5592091 L857.712594,33.5592091 Z M881.726038,29.3333739 L881.726038,32.7876304 C880.410333,33.2651863 878.912268,34 875.841647,34 C869.225878,34 866.192986,29.9582816 866.192986,23.8585013 C866.192986,18.3097097 869.664608,14.3778972 874.927909,14.3778972 C881.141227,14.3778972 883.151545,18.9346174 883.151545,24.9604787 L869.847452,24.9604787 C869.847452,28.6719929 872.734746,31.2071244 875.988212,31.2071244 C878.253933,31.2071244 880.885825,30.031228 881.726038,29.3333739 Z M869.847452,22.3883876 L879.49708,22.3883876 C879.49708,19.5220793 877.815203,17.1702865 874.854868,17.1702865 C871.492083,17.1702865 870.103821,19.9631621 869.847452,22.3883876 Z M886.368056,29.8842653 C887.720522,30.7664307 889.657317,31.2070272 890.644579,31.2070272 C892.216168,31.2070272 894.152963,30.5456462 894.152963,28.5250302 C894.152963,25.1072469 886.075892,25.4014641 886.075892,20.1468898 C886.075892,16.2515505 888.963186,14.3778 892.654414,14.3778 C894.262766,14.3778 895.57847,14.7084904 896.930937,15.1121273 L896.63829,18.1257874 C895.871118,17.6482315 893.824037,17.1706755 893.020102,17.1706755 C891.265669,17.1706755 889.730841,17.9050029 889.730841,19.4490356 C889.730841,23.2699695 897.807912,22.1675058 897.807912,28.1573802 C897.807912,32.1626254 894.628454,33.9999027 891.302431,33.9999027 C889.547997,33.9999027 887.756801,33.8160777 886.185212,32.9708718 L886.368056,29.8842653 Z" id="Dobbies"></path>
                <path d="M435.6309,0 C438.032486,0 439.977376,1.94767466 439.977376,4.34937028 L439.977376,40 L404.345822,40 C401.945544,40 400,38.05298 400,35.6509571 L400,4.34937028 C400,1.94767466 401.945544,0 404.345822,0 L435.6309,0 Z M419.947197,33.5999107 C427.451614,33.6268381 433.55793,27.5616862 433.580951,20.0495926 C433.586787,18.2574611 433.023915,15.9228886 433.020673,16.5084783 C433.006406,21.5847784 428.328669,25.6871504 423.336749,24.9896336 C419.558115,24.4624407 415.348249,20.9855628 416.105013,15.5403898 C416.860481,10.0929459 421.611819,7.95692237 425.018879,8.43285592 C430.476077,9.195258 431.643971,13.3745191 430.013718,15.3441119 C428.363038,17.6066617 424.979647,16.2709981 424.979647,13.7044607 C424.979647,12.2351335 425.921225,11.6096394 426.073616,11.4912237 C423.269956,10.6616654 420.385887,12.8774978 419.983836,15.7940913 C419.537364,18.9767144 421.890013,21.4485193 424.524745,21.8141479 C429.381784,22.4934968 432.167611,18.5679371 432.167611,15.1329103 C432.167611,11.0392977 427.836805,6.4 420.031822,6.4 C412.527081,6.4 406.42271,12.4362779 406.396447,19.9454517 C406.373102,27.4565721 412.437916,33.5707123 419.947197,33.5999107 Z M543.578629,17.7861261 C546.931016,17.7861261 549.606514,20.5852533 549.606514,23.9465139 C549.606514,27.2723321 546.931016,30.1081382 543.578629,30.1081382 C540.223365,30.1081382 537.548277,27.2723321 537.548277,23.9465139 C537.548277,20.5852533 540.223365,17.7861261 543.578629,17.7861261 M543.578629,14.5344897 C538.301609,14.5344897 534.156025,18.6173745 534.156025,23.9465139 C534.156025,29.2752412 538.301609,33.3568897 543.578629,33.3568897 C548.852772,33.3568897 553,29.2752412 553,23.9465139 C553,18.6173745 548.852772,14.5344897 543.578629,14.5344897 M505.951216,15.0628703 L505.951216,17.0826764 L505.828332,17.0826764 C504.46017,15.5335127 502.221135,14.5345309 499.890862,14.5345309 C494.612198,14.5345309 490.467436,18.6170036 490.467436,23.9453188 C490.467436,29.2752824 494.612198,33.3569309 499.890862,33.3569309 C502.221135,33.3569309 504.46017,32.3249794 505.828332,30.8087855 L505.951216,30.8087855 L505.951216,32.7869673 L509.342235,32.7869673 L509.342235,15.0628703 L505.951216,15.0628703 Z M499.983744,30.1061188 C496.630946,30.1061188 493.953393,27.271137 493.953393,23.9453188 C493.953393,20.5848824 496.630946,17.7849309 499.983744,17.7849309 C503.33942,17.7849309 506.016151,20.5848824 506.016151,23.9453188 C506.016151,27.271137 503.33942,30.1061188 499.983744,30.1061188 L499.983744,30.1061188 Z M527.74576,6.57795394 L527.74576,17.0829236 L527.621233,17.0829236 C526.24855,15.5333479 524.014858,14.5343661 521.684996,14.5343661 C516.40962,14.5343661 512.262803,18.6172509 512.262803,23.9455661 C512.262803,29.2751176 516.40962,33.3571782 521.684996,33.3571782 C524.014858,33.3571782 526.24855,32.3248145 527.621233,30.8086206 L527.74576,30.8086206 L527.74576,32.7872145 L531.137602,32.7872145 L531.137602,6.57795394 L527.74576,6.57795394 Z M521.777878,30.1059539 C518.422614,30.1059539 515.74876,27.2709721 515.74876,23.9455661 C515.74876,20.5851297 518.422614,17.7847661 521.777878,17.7847661 C525.133553,17.7847661 527.811107,20.5851297 527.811107,23.9455661 C527.811107,27.2709721 525.133553,30.1059539 521.777878,30.1059539 Z M487.390777,28.1686545 L489.032654,31.2682182 C487.410915,32.5960727 485.318191,33.3799273 483.006001,33.3799273 C477.728981,33.3799273 473.580931,29.2995152 473.580931,23.9712 C473.580931,18.6379394 477.728981,14.5562909 483.006001,14.5562909 C485.318191,14.5562909 487.410915,15.3422061 489.032654,16.6704727 L487.393654,19.7597333 C486.295919,18.5654061 484.746103,17.8083394 483.006001,17.8083394 C479.650737,17.8083394 476.974006,20.6041697 476.974006,23.9712 C476.974006,27.2941333 479.650737,30.1303515 483.006001,30.1303515 C484.744459,30.1303515 486.290576,29.3662788 487.390777,28.1686545 Z M461.566669,17.7861261 C464.921522,17.7861261 467.59702,20.5852533 467.59702,23.9465139 C467.59702,27.2723321 464.921522,30.1081382 461.566669,30.1081382 C458.211816,30.1081382 455.538372,27.2723321 455.538372,23.9465139 C455.538372,20.5852533 458.211816,17.7861261 461.566669,17.7861261 M461.566669,14.5344897 C456.290471,14.5344897 452.143243,18.6173745 452.143243,23.9465139 C452.143243,29.2752412 456.290471,33.3568897 461.566669,33.3568897 C466.843278,33.3568897 470.98804,29.2752412 470.98804,23.9465139 C470.98804,18.6173745 466.843278,14.5344897 461.566669,14.5344897" id="Ocado"></path>
                <path d="M153.510166,19.5593118 L163.345857,19.5593118 L162.000795,22.8059161 L153.510166,22.8059161 L153.510166,31.9891337 L150,31.9891337 L150,8.05312406 L168.111976,8.05312406 L166.803039,11.2140054 L153.510166,11.2140054 L153.510166,19.5593118 Z M190.809446,8 L195.068608,8 L204.573151,32 L200.841416,32 L198.729296,26.7057048 L186.795935,26.7057048 L184.613972,32 L180.882238,32 L190.809446,8 Z M187.782153,23.9178992 L197.779203,23.9178992 L192.921566,11.6703894 L187.782153,23.9178992 Z M221.217239,8 L230.47613,8 C235.508372,8 238.605507,9.97645638 238.605507,14.2831271 C238.605507,16.929671 237.022018,18.6936312 234.5932,19.5061877 C238.255092,20.1412617 240.506897,22.0476909 240.506897,25.6468458 C240.506897,29.5297314 237.621697,32 232.09454,32 L221.217239,32 L221.217239,8 Z M231.602033,28.8234229 C234.909898,28.8234229 236.599353,27.5882886 236.599353,25.2230607 C236.599353,22.4702686 234.523358,21.376396 231.002354,21.376396 L224.877927,21.376396 L224.877927,28.8234229 L231.602033,28.8234229 Z M229.80661,18.1297917 C232.833902,18.1297917 234.805135,17.1059463 234.805135,14.7057048 C234.805135,12.0941745 232.973586,11.1765771 229.982419,11.1765771 L224.877927,11.1765771 L224.877927,18.1297917 L229.80661,18.1297917 Z M258.172125,32 L258.172125,8 L261.832813,8 L261.832813,28.7884093 L274.926997,28.7884093 L274.926997,32 L258.172125,32 Z M291.466322,32 L291.466322,8 L310.052743,8 L310.052743,11.2478117 L294.987326,11.2478117 L294.987326,17.98853 L307.483036,17.98853 L307.483036,21.2351343 L294.987326,21.2351343 L294.987326,28.7533957 L310.052743,28.7533957 L310.052743,32 L291.466322,32 Z M327.89378,8 L337.643974,8 C344.719698,8.03622095 350,12.2354362 350,20.0362209 C350,27.7645638 344.719698,32 337.643974,32 L327.89378,32 L327.89378,8 Z M331.554468,11.2115907 L331.554468,28.7884093 L337.503086,28.7884093 C342.608782,28.7884093 346.233345,25.6830667 346.233345,20.0362209 C346.233345,14.3181407 342.608782,11.2478117 337.503086,11.2115907 L331.554468,11.2115907 Z" id="Fabled"></path>
                <path d="M3.26666667,14.8664012 L3.26666667,13.7997632 C3.2,7.73325979 5.86666667,5.06666487 11.3333333,5 C14.3333333,5 18.4666667,6.06663796 18.4666667,9.6665411 C18.4666667,11.3331629 17.2,12.9997847 15.5333333,12.9997847 C13.8666667,12.9997847 12.5333333,11.9331468 12.4666667,10.1998601 C12.4666667,9.06655724 13.1333333,8.26657877 14.2,8.13324902 L14.2,8.06658415 C13.6666667,7.99991928 13.1333333,7.86658953 12.6,7.86658953 C10.6,7.86658953 10.4,9.6665411 10.4,11.3998278 L10.4666667,14.7997363 L14.0666667,14.7997363 L14.1333333,18.2663097 L10.4666667,18.3329746 L10.5333333,29.1993488 C10.5333333,30.3993165 10.8666667,31.0659653 12.0666667,30.9993004 L13.8666667,30.9993004 L13.8666667,34.4658738 L-7.10542736e-15,34.5325387 L-7.10542736e-15,31.0659653 L1.86666667,31.0659653 C3.13333333,31.0659653 3.4,30.3993165 3.4,29.1993488 L3.33333333,18.3329746 L0.133333333,18.3329746 L0.133333333,14.8664012 L3.26666667,14.8664012 Z M22.0666667,25.3327862 C22.0666667,28.3327055 22.8,31.3326248 26.4,31.3326248 C27.9333333,31.3326248 30.3333333,30.132657 30.7333333,27.5993919 L35.7333333,27.532727 C35.0666667,32.7325871 30.0666667,34.9325279 25.4,34.9991928 C18,35.0658576 14.4666667,30.9993004 14.4666667,24.3328131 C14.4,17.6663258 19.1333333,13.5997686 25.2666667,13.5331037 C32.2666667,13.4664388 36.2,18.4663043 36.2666667,25.1994565 L22.0666667,25.3327862 Z M28.6,21.8662128 L28.6,20.73291 C28.6,18.5329692 27.4,17.066342 25.3333333,17.066342 C23.2666667,17.066342 22.0666667,18.5996341 22.1333333,20.7995749 L22.1333333,21.8662128 L28.6,21.8662128 Z M45.2,6.13330284 L45.2666667,14.1330876 L50.6,14.0664227 L50.6666667,17.5329961 L45.3333333,17.599661 L45.4,29.3993434 C45.4,30.3326517 45.9333333,31.0659653 46.9333333,31.0659653 C48.6,31.0659653 49,29.8659976 49,27.9327162 L48.9333333,24.5994726 L52.4,24.5994726 L52.4666667,28.3993704 C52.5333333,32.5992573 50.4,34.9325279 45.2666667,34.9991928 C40.8,34.9991928 38.3333333,32.9325817 38.3333333,28.4660352 L38.2,17.6663258 L35.2666667,17.6663258 L35.2666667,14.1997524 C39.6,14.1330876 40.6666667,9.73320597 41,6.13330284 L45.2,6.13330284 Z M72.6666667,27.1327378 C72.5333333,32.6659222 68.6,34.7991981 63.8,34.7991981 C57.4,34.865863 53.1333333,31.3326248 53.0666667,24.1328185 C53,16.9996771 58.1333333,13.4664388 63.6666667,13.399774 C68.2666667,13.3331091 72.6,15.5997148 72.6,20.3329207 C72.6,22.5995264 71.2,24.5328077 68.8,24.5328077 C66.7333333,24.5328077 65,23.7328293 65,21.3995587 C65,19.3996125 66.3333333,18.2663097 68.3333333,18.2663097 C67.5333333,17.3330015 66.2,16.7996825 64.8666667,16.7996825 C62.6666667,16.7996825 60.6666667,18.9996233 60.6666667,23.9994888 C60.7333333,28.9326893 61.9333333,31.1326301 64.9333333,31.0659653 C67.1333333,31.0659653 68.2,29.132684 68.4,27.1327378 L72.6666667,27.1327378 Z M82.6,5.53331898 L82.6666667,17.1996717 L82.7333333,17.1996717 C84.6,14.3997471 86.6666667,13.1997794 90.1333333,13.1997794 C95.0666667,13.1331145 96.6666667,15.999704 96.7333333,20.4662505 L96.8,28.6660298 C96.8,29.8659976 97.1333333,30.5326463 98.3333333,30.4659814 L100,30.4659814 L100,33.9325548 L87.2,33.9992197 L87.1333333,30.5326463 L88.0666667,30.5326463 C89.2666667,30.5326463 89.6,29.8659976 89.6,28.6660298 L89.5333333,21.266229 C89.5333333,18.7329638 89.1333333,17.066342 86.2,17.066342 C84.2,17.066342 83,18.9329584 83,20.73291 L83.0666667,28.6660298 C83.0666667,29.8659976 83.4,30.5326463 84.6,30.4659814 L85.6666667,30.4659814 L85.6666667,33.9325548 L72.6666667,33.9992197 L72.6666667,30.5326463 L74.4,30.5326463 C75.6,30.5326463 75.9333333,29.8659976 75.9333333,28.6660298 L75.8,10.7331791 C75.8,9.53321135 75.4666667,8.86656262 74.2666667,8.86656262 L72.4666667,8.86656262 L72.4,5.39998924 L82.6,5.53331898 Z" id="Fetch"></path>
            </g>
        </g>
    </g>
</svg>