<?xml version="1.0" encoding="UTF-8"?>
<svg width="952px" height="40px" viewBox="0 0 952 40" version="1.1" xmlns="http://www.w3.org/2000/svg" xmlns:xlink="http://www.w3.org/1999/xlink">
    <!-- Generator: Sketch 53.2 (72643) - https://sketchapp.com -->
    <title>LOGOS</title>
    <desc>Created with Sketch.</desc>
    <g id="Page-1" stroke="none" stroke-width="1" fill="none" fill-rule="evenodd">
        <g id="LOGOS" transform="translate(-0.000000, 0.000000)" fill="#000000">
            <path d="M855.042169,17.9424779 C857.181928,18.8053097 861.595181,20.6637168 861.662048,26.3716814 C861.662048,31.5486726 857.984337,35 852.501205,35 C848.823494,35 846.81747,33.6061947 845.881325,32.5442478 L845.680723,32.4115044 L845.680723,34.1371681 L841,34.1371681 L841,24.1814159 L845.948193,24.1814159 L845.948193,24.3141593 C846.148795,25.3761062 846.28253,26.2389381 846.81747,27.300885 C848.154819,30.0884956 850.562048,30.420354 851.56506,30.420354 C853.571084,30.420354 855.577108,29.3584071 855.577108,26.8362832 C855.577108,24.5132743 853.437349,23.5840708 852.434337,23.119469 C851.498193,22.7212389 850.628916,22.3893805 849.759639,22.0575221 C849.024096,21.7920354 848.288554,21.5265487 847.553012,21.1946903 C844.477108,19.9336283 841.26747,18.0088496 841.26747,13.2964602 C841.26747,7.58849558 845.881325,5 850.027108,5 C852.701807,5 854.908434,5.79646018 856.045181,7.38938053 L856.245783,7.92035398 L856.245783,6.32743363 L860.926506,6.32743363 L860.926506,15.6858407 L855.911446,15.6858407 L855.911446,15.3539823 C855.844578,14.5575221 855.643976,12.8318584 854.507229,11.5044248 C853.637952,10.4424779 852.233735,9.84513274 850.695783,9.84513274 C848.288554,9.84513274 847.218675,11.3716814 847.218675,12.7654867 C847.218675,14.5575221 848.890361,15.5530973 850.495181,16.2168142 C851.56506,16.6814159 852.63494,17.079646 853.704819,17.4778761 L853.771687,17.4778761 L855.042169,17.9424779 Z M865.072289,12.9646018 L865.072289,8.98230088 L874.433735,8.98230088 L874.433735,12.9646018 L872.427711,12.9646018 L872.427711,27.5663717 L874.433735,27.5663717 L874.433735,31.5486726 L865.072289,31.5486726 L865.072289,27.5663717 L867.078313,27.5663717 L867.078313,12.9646018 L865.072289,12.9646018 Z M877.108434,16.9469027 L877.108434,8.98230088 L892.487952,8.98230088 L892.487952,12.7654867 L882.324096,27.5663717 L887.807229,27.5663717 L887.807229,22.920354 L891.819277,22.920354 L891.819277,31.5486726 L876.439759,31.5486726 L876.439759,27.8318584 L885.93494,12.9646018 L881.120482,12.9646018 L881.120482,16.9469027 L877.108434,16.9469027 Z M895.162651,16.9469027 L895.162651,8.98230088 L910.542169,8.98230088 L910.542169,12.7654867 L900.645783,27.5663717 L906.53012,27.5663717 L906.53012,22.920354 L910.542169,22.920354 L910.542169,31.5486726 L895.162651,31.5486726 L895.162651,27.8318584 L904.925301,12.9646018 L899.843373,12.9646018 L899.843373,16.9469027 L895.162651,16.9469027 Z M924.584337,27.5663717 L924.584337,22.920354 L929.26506,22.920354 L929.26506,31.5486726 L913.885542,31.5486726 L913.885542,27.5663717 L915.891566,27.5663717 L915.891566,12.9646018 L913.885542,12.9646018 L913.885542,8.98230088 L922.578313,8.98230088 L922.578313,12.9646018 L920.572289,12.9646018 L920.572289,27.5663717 L924.584337,27.5663717 Z M947.319277,15.619469 L947.319277,10.3097345 L940.63253,10.3097345 L940.63253,16.9469027 L946.650602,16.9469027 L946.650602,21.5929204 L940.63253,21.5929204 L940.63253,29.5575221 L947.319277,29.5575221 L947.319277,23.5840708 L952,23.5840708 L952,34.2035398 L931.939759,34.2035398 L931.939759,29.5575221 L934.614458,29.5575221 L934.614458,10.3097345 L931.939759,10.3097345 L931.939759,5.66371681 L952,5.66371681 L952,15.619469 L947.319277,15.619469 Z" id="Sizzle"></path>
            <path d="M619.936547,19.9996608 C619.936547,24.4495449 616.56257,28.0701001 612.416073,28.0701001 L606.370255,28.0701001 L606.370255,11.9292216 L612.416073,11.9292216 C616.56257,11.9292216 619.936547,15.5497767 619.936547,19.9996608 L619.936547,19.9996608 Z M623.307479,19.9996608 C623.307479,13.6865849 618.421624,8.54983323 612.416073,8.54983323 L603,8.54983323 L603,31.4494884 L612.416073,31.4494884 C618.421624,31.4494884 623.307479,26.3130759 623.307479,19.9996608 L623.307479,19.9996608 Z M651.763462,19.9996608 C651.763462,24.7534626 648.156342,28.6199333 643.723577,28.6199333 C639.290473,28.6199333 635.683691,24.7534626 635.683691,19.9996608 C635.683691,15.2461982 639.290473,11.3793883 643.723577,11.3793883 C648.156342,11.3793883 651.763462,15.2461982 651.763462,19.9996608 L651.763462,19.9996608 Z M655.133717,19.9996608 C655.133717,13.3826672 650.015058,8 643.723577,8 C637.431757,8 632.313436,13.3826672 632.313436,19.9996608 C632.313436,26.6163152 637.431757,31.9996608 643.723577,31.9996608 C650.015058,31.9996608 655.133717,26.6163152 655.133717,19.9996608 L655.133717,19.9996608 Z M680.883007,24.6198202 C680.883007,26.5308384 679.332216,28.0853638 677.426127,28.0853638 L669.214345,28.0853638 L669.214345,21.1549551 L677.426127,21.1549551 C679.332216,21.1549551 680.883007,22.7094805 680.883007,24.6198202 L680.883007,24.6198202 Z M679.533552,14.8540901 C679.533552,16.3540053 678.390846,17.6191984 676.914836,17.7762451 L669.214345,17.7762451 L669.214345,11.914297 L676.600821,11.914297 C678.218272,11.914297 679.533552,13.2337611 679.533552,14.8540901 L679.533552,14.8540901 Z M681.340496,19.0176946 C682.34988,17.8647747 682.904484,16.3943694 682.904484,14.8540901 C682.904484,11.3702301 680.07665,8.53524789 676.600821,8.53524789 L665.843413,8.53524789 L665.843413,31.4640737 L677.426127,31.4640737 C681.190932,31.4640737 684.253601,28.393691 684.253601,24.6198202 C684.253601,22.3058398 683.100405,20.2571089 681.340496,19.0176946 L681.340496,19.0176946 Z M711.219702,24.6198202 C711.219702,26.5308384 709.669249,28.0853638 707.762822,28.0853638 L699.551378,28.0853638 L699.551378,21.1549551 L707.762822,21.1549551 C709.669249,21.1549551 711.219702,22.7094805 711.219702,24.6198202 L711.219702,24.6198202 Z M709.870246,14.8540901 C709.870246,16.3540053 708.727202,17.6191984 707.251869,17.7762451 L699.551378,17.7762451 L699.551378,11.914297 L706.937515,11.914297 C708.555305,11.914297 709.870246,13.2337611 709.870246,14.8540901 L709.870246,14.8540901 Z M711.67719,19.0176946 C712.686913,17.8647747 713.241516,16.3943694 713.241516,14.8540901 C713.241516,11.3702301 710.413344,8.53524789 706.937515,8.53524789 L696.180446,8.53524789 L696.180446,31.4640737 L707.762822,31.4640737 C711.527965,31.4640737 714.590633,28.393691 714.590633,24.6198202 C714.590633,22.3058398 713.436761,20.2571089 711.67719,19.0176946 L711.67719,19.0176946 Z M729.691136,31.434903 L729.721928,31.434903 L729.721928,8.47860252 L729.691136,8.47860252 L729.691136,8.45146701 L726.320542,8.45146701 L726.320542,8.47860252 L726.273846,8.47860252 L726.273846,31.434903 L726.320542,31.434903 L726.320542,31.4613602 L729.691136,31.4613602 L729.691136,31.434903 Z M743.352173,31.4708576 L760.700866,31.4708576 L760.700866,28.0914693 L746.722767,28.0914693 L746.722767,21.1529199 L757.132997,21.1529199 L757.132997,17.7738708 L746.722767,17.7738708 L746.722767,11.9078523 L760.700866,11.9078523 L760.700866,8.52846402 L743.352173,8.52846402 L743.352173,31.4708576 Z M786.71646,14.066482 L790.053892,13.4766239 C789.337544,10.3302617 785.590335,8 780.936608,8 C778.601116,8 776.422293,8.61394087 774.80112,9.72819266 C773.030382,10.9445418 772.014907,12.712081 772.014907,14.5779863 C772.014907,16.0911301 772.585414,18.1788682 775.302259,19.5298773 C776.919711,20.3337667 778.966565,20.7357115 780.945744,21.1244276 C782.798031,21.489061 784.714271,21.8648878 786.016354,22.5347956 C787.433824,23.2623664 787.629407,24.0971225 787.629407,24.8901577 C787.629407,27.0881339 784.102482,28.6202725 780.936608,28.6202725 C777.094314,28.6202725 774.388636,26.7547063 774.250577,25.027192 L770.923634,25.6153542 C771.422743,29.2491379 775.640638,32 780.936608,32 C786.579755,32 791,28.8770422 791,24.8901577 C791,22.5066425 789.841052,20.7024705 787.553948,19.5271638 C785.828892,18.6411894 783.676124,18.2175363 781.594078,17.8084685 C779.833154,17.46283 778.012336,17.1053197 776.800263,16.502233 C775.626088,15.9191588 775.385838,15.3109842 775.385838,14.5779863 C775.385838,13.039403 777.508152,11.3797275 780.936608,11.3797275 C784.009428,11.3797275 786.253219,12.7090282 786.71646,14.066482 L786.71646,14.066482 Z" id="Dobbies"></path>
            <path d="M435.6309,0 C438.032486,0 439.977376,1.94767466 439.977376,4.34937028 L439.977376,40 L404.345822,40 C401.945544,40 400,38.05298 400,35.6509571 L400,4.34937028 C400,1.94767466 401.945544,0 404.345822,0 L435.6309,0 Z M419.947197,33.5999107 C427.451614,33.6268381 433.55793,27.5616862 433.580951,20.0495926 C433.586787,18.2574611 433.023915,15.9228886 433.020673,16.5084783 C433.006406,21.5847784 428.328669,25.6871504 423.336749,24.9896336 C419.558115,24.4624407 415.348249,20.9855628 416.105013,15.5403898 C416.860481,10.0929459 421.611819,7.95692237 425.018879,8.43285592 C430.476077,9.195258 431.643971,13.3745191 430.013718,15.3441119 C428.363038,17.6066617 424.979647,16.2709981 424.979647,13.7044607 C424.979647,12.2351335 425.921225,11.6096394 426.073616,11.4912237 C423.269956,10.6616654 420.385887,12.8774978 419.983836,15.7940913 C419.537364,18.9767144 421.890013,21.4485193 424.524745,21.8141479 C429.381784,22.4934968 432.167611,18.5679371 432.167611,15.1329103 C432.167611,11.0392977 427.836805,6.4 420.031822,6.4 C412.527081,6.4 406.42271,12.4362779 406.396447,19.9454517 C406.373102,27.4565721 412.437916,33.5707123 419.947197,33.5999107 Z M543.578629,17.7861261 C546.931016,17.7861261 549.606514,20.5852533 549.606514,23.9465139 C549.606514,27.2723321 546.931016,30.1081382 543.578629,30.1081382 C540.223365,30.1081382 537.548277,27.2723321 537.548277,23.9465139 C537.548277,20.5852533 540.223365,17.7861261 543.578629,17.7861261 M543.578629,14.5344897 C538.301609,14.5344897 534.156025,18.6173745 534.156025,23.9465139 C534.156025,29.2752412 538.301609,33.3568897 543.578629,33.3568897 C548.852772,33.3568897 553,29.2752412 553,23.9465139 C553,18.6173745 548.852772,14.5344897 543.578629,14.5344897 M505.951216,15.0628703 L505.951216,17.0826764 L505.828332,17.0826764 C504.46017,15.5335127 502.221135,14.5345309 499.890862,14.5345309 C494.612198,14.5345309 490.467436,18.6170036 490.467436,23.9453188 C490.467436,29.2752824 494.612198,33.3569309 499.890862,33.3569309 C502.221135,33.3569309 504.46017,32.3249794 505.828332,30.8087855 L505.951216,30.8087855 L505.951216,32.7869673 L509.342235,32.7869673 L509.342235,15.0628703 L505.951216,15.0628703 Z M499.983744,30.1061188 C496.630946,30.1061188 493.953393,27.271137 493.953393,23.9453188 C493.953393,20.5848824 496.630946,17.7849309 499.983744,17.7849309 C503.33942,17.7849309 506.016151,20.5848824 506.016151,23.9453188 C506.016151,27.271137 503.33942,30.1061188 499.983744,30.1061188 L499.983744,30.1061188 Z M527.74576,6.57795394 L527.74576,17.0829236 L527.621233,17.0829236 C526.24855,15.5333479 524.014858,14.5343661 521.684996,14.5343661 C516.40962,14.5343661 512.262803,18.6172509 512.262803,23.9455661 C512.262803,29.2751176 516.40962,33.3571782 521.684996,33.3571782 C524.014858,33.3571782 526.24855,32.3248145 527.621233,30.8086206 L527.74576,30.8086206 L527.74576,32.7872145 L531.137602,32.7872145 L531.137602,6.57795394 L527.74576,6.57795394 Z M521.777878,30.1059539 C518.422614,30.1059539 515.74876,27.2709721 515.74876,23.9455661 C515.74876,20.5851297 518.422614,17.7847661 521.777878,17.7847661 C525.133553,17.7847661 527.811107,20.5851297 527.811107,23.9455661 C527.811107,27.2709721 525.133553,30.1059539 521.777878,30.1059539 Z M487.390777,28.1686545 L489.032654,31.2682182 C487.410915,32.5960727 485.318191,33.3799273 483.006001,33.3799273 C477.728981,33.3799273 473.580931,29.2995152 473.580931,23.9712 C473.580931,18.6379394 477.728981,14.5562909 483.006001,14.5562909 C485.318191,14.5562909 487.410915,15.3422061 489.032654,16.6704727 L487.393654,19.7597333 C486.295919,18.5654061 484.746103,17.8083394 483.006001,17.8083394 C479.650737,17.8083394 476.974006,20.6041697 476.974006,23.9712 C476.974006,27.2941333 479.650737,30.1303515 483.006001,30.1303515 C484.744459,30.1303515 486.290576,29.3662788 487.390777,28.1686545 Z M461.566669,17.7861261 C464.921522,17.7861261 467.59702,20.5852533 467.59702,23.9465139 C467.59702,27.2723321 464.921522,30.1081382 461.566669,30.1081382 C458.211816,30.1081382 455.538372,27.2723321 455.538372,23.9465139 C455.538372,20.5852533 458.211816,17.7861261 461.566669,17.7861261 M461.566669,14.5344897 C456.290471,14.5344897 452.143243,18.6173745 452.143243,23.9465139 C452.143243,29.2752412 456.290471,33.3568897 461.566669,33.3568897 C466.843278,33.3568897 470.98804,29.2752412 470.98804,23.9465139 C470.98804,18.6173745 466.843278,14.5344897 461.566669,14.5344897" id="Ocado"></path>
            <path d="M153.510166,19.5593118 L163.345857,19.5593118 L162.000795,22.8059161 L153.510166,22.8059161 L153.510166,31.9891337 L150,31.9891337 L150,8.05312406 L168.111976,8.05312406 L166.803039,11.2140054 L153.510166,11.2140054 L153.510166,19.5593118 Z M190.809446,8 L195.068608,8 L204.573151,32 L200.841416,32 L198.729296,26.7057048 L186.795935,26.7057048 L184.613972,32 L180.882238,32 L190.809446,8 Z M187.782153,23.9178992 L197.779203,23.9178992 L192.921566,11.6703894 L187.782153,23.9178992 Z M221.217239,8 L230.47613,8 C235.508372,8 238.605507,9.97645638 238.605507,14.2831271 C238.605507,16.929671 237.022018,18.6936312 234.5932,19.5061877 C238.255092,20.1412617 240.506897,22.0476909 240.506897,25.6468458 C240.506897,29.5297314 237.621697,32 232.09454,32 L221.217239,32 L221.217239,8 Z M231.602033,28.8234229 C234.909898,28.8234229 236.599353,27.5882886 236.599353,25.2230607 C236.599353,22.4702686 234.523358,21.376396 231.002354,21.376396 L224.877927,21.376396 L224.877927,28.8234229 L231.602033,28.8234229 Z M229.80661,18.1297917 C232.833902,18.1297917 234.805135,17.1059463 234.805135,14.7057048 C234.805135,12.0941745 232.973586,11.1765771 229.982419,11.1765771 L224.877927,11.1765771 L224.877927,18.1297917 L229.80661,18.1297917 Z M258.172125,32 L258.172125,8 L261.832813,8 L261.832813,28.7884093 L274.926997,28.7884093 L274.926997,32 L258.172125,32 Z M291.466322,32 L291.466322,8 L310.052743,8 L310.052743,11.2478117 L294.987326,11.2478117 L294.987326,17.98853 L307.483036,17.98853 L307.483036,21.2351343 L294.987326,21.2351343 L294.987326,28.7533957 L310.052743,28.7533957 L310.052743,32 L291.466322,32 Z M327.89378,8 L337.643974,8 C344.719698,8.03622095 350,12.2354362 350,20.0362209 C350,27.7645638 344.719698,32 337.643974,32 L327.89378,32 L327.89378,8 Z M331.554468,11.2115907 L331.554468,28.7884093 L337.503086,28.7884093 C342.608782,28.7884093 346.233345,25.6830667 346.233345,20.0362209 C346.233345,14.3181407 342.608782,11.2478117 337.503086,11.2115907 L331.554468,11.2115907 Z" id="Fabled"></path>
            <path d="M3.26666667,14.8664012 L3.26666667,13.7997632 C3.2,7.73325979 5.86666667,5.06666487 11.3333333,5 C14.3333333,5 18.4666667,6.06663796 18.4666667,9.6665411 C18.4666667,11.3331629 17.2,12.9997847 15.5333333,12.9997847 C13.8666667,12.9997847 12.5333333,11.9331468 12.4666667,10.1998601 C12.4666667,9.06655724 13.1333333,8.26657877 14.2,8.13324902 L14.2,8.06658415 C13.6666667,7.99991928 13.1333333,7.86658953 12.6,7.86658953 C10.6,7.86658953 10.4,9.6665411 10.4,11.3998278 L10.4666667,14.7997363 L14.0666667,14.7997363 L14.1333333,18.2663097 L10.4666667,18.3329746 L10.5333333,29.1993488 C10.5333333,30.3993165 10.8666667,31.0659653 12.0666667,30.9993004 L13.8666667,30.9993004 L13.8666667,34.4658738 L-7.10542736e-15,34.5325387 L-7.10542736e-15,31.0659653 L1.86666667,31.0659653 C3.13333333,31.0659653 3.4,30.3993165 3.4,29.1993488 L3.33333333,18.3329746 L0.133333333,18.3329746 L0.133333333,14.8664012 L3.26666667,14.8664012 Z M22.0666667,25.3327862 C22.0666667,28.3327055 22.8,31.3326248 26.4,31.3326248 C27.9333333,31.3326248 30.3333333,30.132657 30.7333333,27.5993919 L35.7333333,27.532727 C35.0666667,32.7325871 30.0666667,34.9325279 25.4,34.9991928 C18,35.0658576 14.4666667,30.9993004 14.4666667,24.3328131 C14.4,17.6663258 19.1333333,13.5997686 25.2666667,13.5331037 C32.2666667,13.4664388 36.2,18.4663043 36.2666667,25.1994565 L22.0666667,25.3327862 Z M28.6,21.8662128 L28.6,20.73291 C28.6,18.5329692 27.4,17.066342 25.3333333,17.066342 C23.2666667,17.066342 22.0666667,18.5996341 22.1333333,20.7995749 L22.1333333,21.8662128 L28.6,21.8662128 Z M45.2,6.13330284 L45.2666667,14.1330876 L50.6,14.0664227 L50.6666667,17.5329961 L45.3333333,17.599661 L45.4,29.3993434 C45.4,30.3326517 45.9333333,31.0659653 46.9333333,31.0659653 C48.6,31.0659653 49,29.8659976 49,27.9327162 L48.9333333,24.5994726 L52.4,24.5994726 L52.4666667,28.3993704 C52.5333333,32.5992573 50.4,34.9325279 45.2666667,34.9991928 C40.8,34.9991928 38.3333333,32.9325817 38.3333333,28.4660352 L38.2,17.6663258 L35.2666667,17.6663258 L35.2666667,14.1997524 C39.6,14.1330876 40.6666667,9.73320597 41,6.13330284 L45.2,6.13330284 Z M72.6666667,27.1327378 C72.5333333,32.6659222 68.6,34.7991981 63.8,34.7991981 C57.4,34.865863 53.1333333,31.3326248 53.0666667,24.1328185 C53,16.9996771 58.1333333,13.4664388 63.6666667,13.399774 C68.2666667,13.3331091 72.6,15.5997148 72.6,20.3329207 C72.6,22.5995264 71.2,24.5328077 68.8,24.5328077 C66.7333333,24.5328077 65,23.7328293 65,21.3995587 C65,19.3996125 66.3333333,18.2663097 68.3333333,18.2663097 C67.5333333,17.3330015 66.2,16.7996825 64.8666667,16.7996825 C62.6666667,16.7996825 60.6666667,18.9996233 60.6666667,23.9994888 C60.7333333,28.9326893 61.9333333,31.1326301 64.9333333,31.0659653 C67.1333333,31.0659653 68.2,29.132684 68.4,27.1327378 L72.6666667,27.1327378 Z M82.6,5.53331898 L82.6666667,17.1996717 L82.7333333,17.1996717 C84.6,14.3997471 86.6666667,13.1997794 90.1333333,13.1997794 C95.0666667,13.1331145 96.6666667,15.999704 96.7333333,20.4662505 L96.8,28.6660298 C96.8,29.8659976 97.1333333,30.5326463 98.3333333,30.4659814 L100,30.4659814 L100,33.9325548 L87.2,33.9992197 L87.1333333,30.5326463 L88.0666667,30.5326463 C89.2666667,30.5326463 89.6,29.8659976 89.6,28.6660298 L89.5333333,21.266229 C89.5333333,18.7329638 89.1333333,17.066342 86.2,17.066342 C84.2,17.066342 83,18.9329584 83,20.73291 L83.0666667,28.6660298 C83.0666667,29.8659976 83.4,30.5326463 84.6,30.4659814 L85.6666667,30.4659814 L85.6666667,33.9325548 L72.6666667,33.9992197 L72.6666667,30.5326463 L74.4,30.5326463 C75.6,30.5326463 75.9333333,29.8659976 75.9333333,28.6660298 L75.8,10.7331791 C75.8,9.53321135 75.4666667,8.86656262 74.2666667,8.86656262 L72.4666667,8.86656262 L72.4,5.39998924 L82.6,5.53331898 Z" id="Fetch"></path>
        </g>
    </g>
</svg>