<?xml version="1.0" encoding="UTF-8"?>
<svg width="134px" height="28px" viewBox="0 0 134 28" version="1.1" xmlns="http://www.w3.org/2000/svg" xmlns:xlink="http://www.w3.org/1999/xlink">
    <!-- Generator: Sketch 52.5 (67469) - http://www.bohemiancoding.com/sketch -->
    <title>Dobbies</title>
    <desc>Created with Sketch.</desc>
    <g id="Page-1" stroke="none" stroke-width="1" fill="none" fill-rule="evenodd">
        <g id="Desktop-HD" transform="translate(-912.000000, -386.000000)" fill="#FFFFFF">
            <g id="LOGOS" transform="translate(148.000000, 380.000000)">
                <path d="M764,33.5591604 L771.529022,33.5591604 C779.935502,33.5591604 785.125763,29.1128325 785.125763,20.5139076 C785.125763,12.6138095 779.095289,7.9107101 771.529022,7.9107101 L764,7.9107101 L764,33.5591604 Z M767.654949,11.1436958 L771.931472,11.1436958 C777.194774,11.1436958 781.251207,14.6718713 781.251207,20.6617457 C781.251207,27.2760414 777.779585,30.3256884 771.492743,30.3256884 L767.654949,30.3256884 L767.654949,11.1436958 Z M789.0365,24.1891431 C789.0365,18.4934861 792.837532,14.3778486 798.539079,14.3778486 C804.204347,14.3778486 808.005862,18.4934861 808.005862,24.1891431 C808.005862,29.5536234 804.131306,33.9999514 798.539079,33.9999514 C792.910573,33.9999514 789.0365,29.5536234 789.0365,24.1891431 Z M792.69145,24.1891431 C792.69145,27.5325211 794.482162,31.2070758 798.539079,31.2070758 C802.559717,31.2070758 804.350429,27.5325211 804.350429,24.1891431 C804.350429,20.6244944 802.194512,17.1707242 798.539079,17.1707242 C794.847851,17.1707242 792.69145,20.6244944 792.69145,24.1891431 Z M812.610779,33.5591604 L812.610779,6 L816.046606,6 L816.046606,17.3908279 L816.119647,17.3908279 C817.179466,15.6639428 819.043703,14.3776541 822.296202,14.3776541 C827.706069,14.3776541 830.336994,18.823982 830.336994,23.8582581 C830.336994,29.0024402 827.961954,33.9997568 822.332964,33.9997568 C819.006941,33.9997568 816.887302,32.3098313 815.973565,30.9141229 L815.90004,30.9141229 L815.90004,33.5591604 L812.610779,33.5591604 Z M826.682528,24.1150296 C826.755569,20.7346921 825.293783,17.1705296 821.565309,17.1705296 C817.837318,17.1705296 816.046606,20.7346921 816.046606,24.2254218 C816.046606,27.3489879 817.654474,31.2068813 821.52903,31.2068813 C825.220742,31.2068813 826.755569,27.0547706 826.682528,24.1150296 Z M834.942685,33.5591604 L834.942685,6 L838.378511,6 L838.378511,17.3908279 L838.451069,17.3908279 C839.510404,15.6639428 841.375609,14.3776541 844.628107,14.3776541 C850.037491,14.3776541 852.668899,18.823982 852.668899,23.8582581 C852.668899,29.0024402 850.292892,33.9997568 844.664386,33.9997568 C841.338846,33.9997568 839.219208,32.3098313 838.305471,30.9141229 L838.23243,30.9141229 L838.23243,33.5591604 L834.942685,33.5591604 Z M849.014434,24.1150296 C849.087475,20.7346921 847.625688,17.1705296 843.897214,17.1705296 C840.16874,17.1705296 838.378511,20.7346921 838.378511,24.2254218 C838.378511,27.3489879 839.98638,31.2068813 843.860936,31.2068813 C847.552164,31.2068813 849.087475,27.0547706 849.014434,24.1150296 Z M857.493471,10.6297152 L857.493471,6.73486231 L861.368027,6.73486231 L861.368027,10.6297152 L857.493471,10.6297152 Z M857.712594,33.5592091 L857.712594,14.8187854 L861.148421,14.8187854 L861.148421,33.5592091 L857.712594,33.5592091 Z M881.726038,29.3333739 L881.726038,32.7876304 C880.410333,33.2651863 878.912268,34 875.841647,34 C869.225878,34 866.192986,29.9582816 866.192986,23.8585013 C866.192986,18.3097097 869.664608,14.3778972 874.927909,14.3778972 C881.141227,14.3778972 883.151545,18.9346174 883.151545,24.9604787 L869.847452,24.9604787 C869.847452,28.6719929 872.734746,31.2071244 875.988212,31.2071244 C878.253933,31.2071244 880.885825,30.031228 881.726038,29.3333739 Z M869.847452,22.3883876 L879.49708,22.3883876 C879.49708,19.5220793 877.815203,17.1702865 874.854868,17.1702865 C871.492083,17.1702865 870.103821,19.9631621 869.847452,22.3883876 Z M886.368056,29.8842653 C887.720522,30.7664307 889.657317,31.2070272 890.644579,31.2070272 C892.216168,31.2070272 894.152963,30.5456462 894.152963,28.5250302 C894.152963,25.1072469 886.075892,25.4014641 886.075892,20.1468898 C886.075892,16.2515505 888.963186,14.3778 892.654414,14.3778 C894.262766,14.3778 895.57847,14.7084904 896.930937,15.1121273 L896.63829,18.1257874 C895.871118,17.6482315 893.824037,17.1706755 893.020102,17.1706755 C891.265669,17.1706755 889.730841,17.9050029 889.730841,19.4490356 C889.730841,23.2699695 897.807912,22.1675058 897.807912,28.1573802 C897.807912,32.1626254 894.628454,33.9999027 891.302431,33.9999027 C889.547997,33.9999027 887.756801,33.8160777 886.185212,32.9708718 L886.368056,29.8842653 Z" id="Dobbies"></path>
            </g>
        </g>
    </g>
</svg>