<?xml version="1.0" encoding="UTF-8"?>
<svg width="200px" height="24px" viewBox="0 0 200 24" version="1.1" xmlns="http://www.w3.org/2000/svg" xmlns:xlink="http://www.w3.org/1999/xlink">
    <!-- Generator: Sketch 52.5 (67469) - http://www.bohemiancoding.com/sketch -->
    <title>Fabled</title>
    <desc>Created with Sketch.</desc>
    <g id="Page-1" stroke="none" stroke-width="1" fill="none" fill-rule="evenodd">
        <g id="Desktop-HD" transform="translate(-298.000000, -388.000000)" fill="#FFFFFF">
            <g id="LOGOS" transform="translate(148.000000, 380.000000)">
                <path d="M153.510166,19.5593118 L163.345857,19.5593118 L162.000795,22.8059161 L153.510166,22.8059161 L153.510166,31.9891337 L150,31.9891337 L150,8.05312406 L168.111976,8.05312406 L166.803039,11.2140054 L153.510166,11.2140054 L153.510166,19.5593118 Z M190.809446,8 L195.068608,8 L204.573151,32 L200.841416,32 L198.729296,26.7057048 L186.795935,26.7057048 L184.613972,32 L180.882238,32 L190.809446,8 Z M187.782153,23.9178992 L197.779203,23.9178992 L192.921566,11.6703894 L187.782153,23.9178992 Z M221.217239,8 L230.47613,8 C235.508372,8 238.605507,9.97645638 238.605507,14.2831271 C238.605507,16.929671 237.022018,18.6936312 234.5932,19.5061877 C238.255092,20.1412617 240.506897,22.0476909 240.506897,25.6468458 C240.506897,29.5297314 237.621697,32 232.09454,32 L221.217239,32 L221.217239,8 Z M231.602033,28.8234229 C234.909898,28.8234229 236.599353,27.5882886 236.599353,25.2230607 C236.599353,22.4702686 234.523358,21.376396 231.002354,21.376396 L224.877927,21.376396 L224.877927,28.8234229 L231.602033,28.8234229 Z M229.80661,18.1297917 C232.833902,18.1297917 234.805135,17.1059463 234.805135,14.7057048 C234.805135,12.0941745 232.973586,11.1765771 229.982419,11.1765771 L224.877927,11.1765771 L224.877927,18.1297917 L229.80661,18.1297917 Z M258.172125,32 L258.172125,8 L261.832813,8 L261.832813,28.7884093 L274.926997,28.7884093 L274.926997,32 L258.172125,32 Z M291.466322,32 L291.466322,8 L310.052743,8 L310.052743,11.2478117 L294.987326,11.2478117 L294.987326,17.98853 L307.483036,17.98853 L307.483036,21.2351343 L294.987326,21.2351343 L294.987326,28.7533957 L310.052743,28.7533957 L310.052743,32 L291.466322,32 Z M327.89378,8 L337.643974,8 C344.719698,8.03622095 350,12.2354362 350,20.0362209 C350,27.7645638 344.719698,32 337.643974,32 L327.89378,32 L327.89378,8 Z M331.554468,11.2115907 L331.554468,28.7884093 L337.503086,28.7884093 C342.608782,28.7884093 346.233345,25.6830667 346.233345,20.0362209 C346.233345,14.3181407 342.608782,11.2478117 337.503086,11.2115907 L331.554468,11.2115907 Z" id="Fabled"></path>
            </g>
        </g>
    </g>
</svg>