<?xml version="1.0" encoding="UTF-8"?>
<svg width="100px" height="30px" viewBox="0 0 100 30" version="1.1" xmlns="http://www.w3.org/2000/svg" xmlns:xlink="http://www.w3.org/1999/xlink">
    <!-- Generator: Sketch 52.5 (67469) - http://www.bohemiancoding.com/sketch -->
    <title>Fetch</title>
    <desc>Created with Sketch.</desc>
    <g id="Page-1" stroke="none" stroke-width="1" fill="none" fill-rule="evenodd">
        <g id="Desktop-HD" transform="translate(-148.000000, -385.000000)" fill="#FFFFFF">
            <g id="LOGOS" transform="translate(148.000000, 380.000000)">
                <path d="M3.26666667,14.8664012 L3.26666667,13.7997632 C3.2,7.73325979 5.86666667,5.06666487 11.3333333,5 C14.3333333,5 18.4666667,6.06663796 18.4666667,9.6665411 C18.4666667,11.3331629 17.2,12.9997847 15.5333333,12.9997847 C13.8666667,12.9997847 12.5333333,11.9331468 12.4666667,10.1998601 C12.4666667,9.06655724 13.1333333,8.26657877 14.2,8.13324902 L14.2,8.06658415 C13.6666667,7.99991928 13.1333333,7.86658953 12.6,7.86658953 C10.6,7.86658953 10.4,9.6665411 10.4,11.3998278 L10.4666667,14.7997363 L14.0666667,14.7997363 L14.1333333,18.2663097 L10.4666667,18.3329746 L10.5333333,29.1993488 C10.5333333,30.3993165 10.8666667,31.0659653 12.0666667,30.9993004 L13.8666667,30.9993004 L13.8666667,34.4658738 L-7.10542736e-15,34.5325387 L-7.10542736e-15,31.0659653 L1.86666667,31.0659653 C3.13333333,31.0659653 3.4,30.3993165 3.4,29.1993488 L3.33333333,18.3329746 L0.133333333,18.3329746 L0.133333333,14.8664012 L3.26666667,14.8664012 Z M22.0666667,25.3327862 C22.0666667,28.3327055 22.8,31.3326248 26.4,31.3326248 C27.9333333,31.3326248 30.3333333,30.132657 30.7333333,27.5993919 L35.7333333,27.532727 C35.0666667,32.7325871 30.0666667,34.9325279 25.4,34.9991928 C18,35.0658576 14.4666667,30.9993004 14.4666667,24.3328131 C14.4,17.6663258 19.1333333,13.5997686 25.2666667,13.5331037 C32.2666667,13.4664388 36.2,18.4663043 36.2666667,25.1994565 L22.0666667,25.3327862 Z M28.6,21.8662128 L28.6,20.73291 C28.6,18.5329692 27.4,17.066342 25.3333333,17.066342 C23.2666667,17.066342 22.0666667,18.5996341 22.1333333,20.7995749 L22.1333333,21.8662128 L28.6,21.8662128 Z M45.2,6.13330284 L45.2666667,14.1330876 L50.6,14.0664227 L50.6666667,17.5329961 L45.3333333,17.599661 L45.4,29.3993434 C45.4,30.3326517 45.9333333,31.0659653 46.9333333,31.0659653 C48.6,31.0659653 49,29.8659976 49,27.9327162 L48.9333333,24.5994726 L52.4,24.5994726 L52.4666667,28.3993704 C52.5333333,32.5992573 50.4,34.9325279 45.2666667,34.9991928 C40.8,34.9991928 38.3333333,32.9325817 38.3333333,28.4660352 L38.2,17.6663258 L35.2666667,17.6663258 L35.2666667,14.1997524 C39.6,14.1330876 40.6666667,9.73320597 41,6.13330284 L45.2,6.13330284 Z M72.6666667,27.1327378 C72.5333333,32.6659222 68.6,34.7991981 63.8,34.7991981 C57.4,34.865863 53.1333333,31.3326248 53.0666667,24.1328185 C53,16.9996771 58.1333333,13.4664388 63.6666667,13.399774 C68.2666667,13.3331091 72.6,15.5997148 72.6,20.3329207 C72.6,22.5995264 71.2,24.5328077 68.8,24.5328077 C66.7333333,24.5328077 65,23.7328293 65,21.3995587 C65,19.3996125 66.3333333,18.2663097 68.3333333,18.2663097 C67.5333333,17.3330015 66.2,16.7996825 64.8666667,16.7996825 C62.6666667,16.7996825 60.6666667,18.9996233 60.6666667,23.9994888 C60.7333333,28.9326893 61.9333333,31.1326301 64.9333333,31.0659653 C67.1333333,31.0659653 68.2,29.132684 68.4,27.1327378 L72.6666667,27.1327378 Z M82.6,5.53331898 L82.6666667,17.1996717 L82.7333333,17.1996717 C84.6,14.3997471 86.6666667,13.1997794 90.1333333,13.1997794 C95.0666667,13.1331145 96.6666667,15.999704 96.7333333,20.4662505 L96.8,28.6660298 C96.8,29.8659976 97.1333333,30.5326463 98.3333333,30.4659814 L100,30.4659814 L100,33.9325548 L87.2,33.9992197 L87.1333333,30.5326463 L88.0666667,30.5326463 C89.2666667,30.5326463 89.6,29.8659976 89.6,28.6660298 L89.5333333,21.266229 C89.5333333,18.7329638 89.1333333,17.066342 86.2,17.066342 C84.2,17.066342 83,18.9329584 83,20.73291 L83.0666667,28.6660298 C83.0666667,29.8659976 83.4,30.5326463 84.6,30.4659814 L85.6666667,30.4659814 L85.6666667,33.9325548 L72.6666667,33.9992197 L72.6666667,30.5326463 L74.4,30.5326463 C75.6,30.5326463 75.9333333,29.8659976 75.9333333,28.6660298 L75.8,10.7331791 C75.8,9.53321135 75.4666667,8.86656262 74.2666667,8.86656262 L72.4666667,8.86656262 L72.4,5.39998924 L82.6,5.53331898 Z" id="Fetch"></path>
            </g>
        </g>
    </g>
</svg>