<?xml version="1.0" encoding="UTF-8"?>
<svg width="111px" height="30px" viewBox="0 0 111 30" version="1.1" xmlns="http://www.w3.org/2000/svg" xmlns:xlink="http://www.w3.org/1999/xlink">
    <!-- Generator: Sketch 52.5 (67469) - http://www.bohemiancoding.com/sketch -->
    <title>Sizzle</title>
    <desc>Created with Sketch.</desc>
    <g id="Page-1" stroke="none" stroke-width="1" fill="none" fill-rule="evenodd">
        <g id="Desktop-HD" transform="translate(-751.000000, -385.000000)" fill="#FFFFFF">
            <g id="LOGOS" transform="translate(148.000000, 380.000000)">
                <path d="M617.042169,17.9424779 C619.181928,18.8053097 623.595181,20.6637168 623.662048,26.3716814 C623.662048,31.5486726 619.984337,35 614.501205,35 C610.823494,35 608.81747,33.6061947 607.881325,32.5442478 L607.680723,32.4115044 L607.680723,34.1371681 L603,34.1371681 L603,24.1814159 L607.948193,24.1814159 L607.948193,24.3141593 C608.148795,25.3761062 608.28253,26.2389381 608.81747,27.300885 C610.154819,30.0884956 612.562048,30.420354 613.56506,30.420354 C615.571084,30.420354 617.577108,29.3584071 617.577108,26.8362832 C617.577108,24.5132743 615.437349,23.5840708 614.434337,23.119469 C613.498193,22.7212389 612.628916,22.3893805 611.759639,22.0575221 C611.024096,21.7920354 610.288554,21.5265487 609.553012,21.1946903 C606.477108,19.9336283 603.26747,18.0088496 603.26747,13.2964602 C603.26747,7.58849558 607.881325,5 612.027108,5 C614.701807,5 616.908434,5.79646018 618.045181,7.38938053 L618.245783,7.92035398 L618.245783,6.32743363 L622.926506,6.32743363 L622.926506,15.6858407 L617.911446,15.6858407 L617.911446,15.3539823 C617.844578,14.5575221 617.643976,12.8318584 616.507229,11.5044248 C615.637952,10.4424779 614.233735,9.84513274 612.695783,9.84513274 C610.288554,9.84513274 609.218675,11.3716814 609.218675,12.7654867 C609.218675,14.5575221 610.890361,15.5530973 612.495181,16.2168142 C613.56506,16.6814159 614.63494,17.079646 615.704819,17.4778761 L615.771687,17.4778761 L617.042169,17.9424779 Z M627.072289,12.9646018 L627.072289,8.98230088 L636.433735,8.98230088 L636.433735,12.9646018 L634.427711,12.9646018 L634.427711,27.5663717 L636.433735,27.5663717 L636.433735,31.5486726 L627.072289,31.5486726 L627.072289,27.5663717 L629.078313,27.5663717 L629.078313,12.9646018 L627.072289,12.9646018 Z M639.108434,16.9469027 L639.108434,8.98230088 L654.487952,8.98230088 L654.487952,12.7654867 L644.324096,27.5663717 L649.807229,27.5663717 L649.807229,22.920354 L653.819277,22.920354 L653.819277,31.5486726 L638.439759,31.5486726 L638.439759,27.8318584 L647.93494,12.9646018 L643.120482,12.9646018 L643.120482,16.9469027 L639.108434,16.9469027 Z M657.162651,16.9469027 L657.162651,8.98230088 L672.542169,8.98230088 L672.542169,12.7654867 L662.645783,27.5663717 L668.53012,27.5663717 L668.53012,22.920354 L672.542169,22.920354 L672.542169,31.5486726 L657.162651,31.5486726 L657.162651,27.8318584 L666.925301,12.9646018 L661.843373,12.9646018 L661.843373,16.9469027 L657.162651,16.9469027 Z M686.584337,27.5663717 L686.584337,22.920354 L691.26506,22.920354 L691.26506,31.5486726 L675.885542,31.5486726 L675.885542,27.5663717 L677.891566,27.5663717 L677.891566,12.9646018 L675.885542,12.9646018 L675.885542,8.98230088 L684.578313,8.98230088 L684.578313,12.9646018 L682.572289,12.9646018 L682.572289,27.5663717 L686.584337,27.5663717 Z M709.319277,15.619469 L709.319277,10.3097345 L702.63253,10.3097345 L702.63253,16.9469027 L708.650602,16.9469027 L708.650602,21.5929204 L702.63253,21.5929204 L702.63253,29.5575221 L709.319277,29.5575221 L709.319277,23.5840708 L714,23.5840708 L714,34.2035398 L693.939759,34.2035398 L693.939759,29.5575221 L696.614458,29.5575221 L696.614458,10.3097345 L693.939759,10.3097345 L693.939759,5.66371681 L714,5.66371681 L714,15.619469 L709.319277,15.619469 Z" id="Sizzle"></path>
            </g>
        </g>
    </g>
</svg>