<?xml version="1.0" encoding="UTF-8"?>
<svg width="229px" height="31px" viewBox="0 0 229 31" version="1.1" xmlns="http://www.w3.org/2000/svg" xmlns:xlink="http://www.w3.org/1999/xlink">
    <!-- Generator: Sketch 59.1 (86144) - https://sketch.com -->
    <title>Group</title>
    <desc>Created with Sketch.</desc>
    <g id="Page-1" stroke="none" stroke-width="1" fill="none" fill-rule="evenodd">
        <g id="Group" transform="translate(0.066000, 0.000000)" fill="#F50057">
            <path d="M133.302,28.666 L115.178,10.543 C114.983,10.347 114.726,10.25 114.47,10.25 C114.214,10.25 113.957,10.347 113.762,10.543 L95.638,28.666 L88.217,28.666 L114.47,2.412 L140.724,28.666 L133.302,28.666 Z M114.471,28.666 L98.467,28.666 L114.47,12.662 L130.474,28.666 L114.471,28.666 Z M222.138,17.083 L160.474,17.083 L148.891,28.666 L143.552,28.666 L133.958,19.073 L153.566,19.073 C154.118,19.073 154.566,18.625 154.566,18.073 C154.566,17.52 154.118,17.073 153.566,17.073 L131.958,17.073 L115.178,0.293 C114.983,0.097 114.726,0 114.47,0 C114.214,0 113.957,0.097 113.762,0.293 L96.982,17.073 L75.375,17.073 C74.822,17.073 74.375,17.52 74.375,18.073 C74.375,18.625 74.822,19.073 75.375,19.073 L94.982,19.073 L85.388,28.666 L80.05,28.666 L68.467,17.083 L6.803,17.083 C6.25,17.083 5.803,17.531 5.803,18.083 C5.803,18.636 6.25,19.083 6.803,19.083 L67.638,19.083 L79.221,30.666 L114.469,30.666 L114.47,30.666 L114.471,30.666 L149.719,30.666 L161.302,19.083 L222.138,19.083 C222.691,19.083 223.138,18.636 223.138,18.083 C223.138,17.531 222.691,17.083 222.138,17.083 L222.138,17.083 Z" id="Fill-4"></path>
            <path d="M226.916,8.601 C226.164,8.601 225.516,9.016 225.167,9.625 L144.22,9.625 C143.871,9.016 143.223,8.601 142.471,8.601 C141.354,8.601 140.448,9.507 140.448,10.625 C140.448,11.742 141.354,12.648 142.471,12.648 C143.223,12.648 143.871,12.233 144.22,11.625 L225.167,11.625 C225.516,12.233 226.164,12.648 226.916,12.648 C228.034,12.648 228.94,11.742 228.94,10.625 C228.94,9.507 228.034,8.601 226.916,8.601" id="Fill-5"></path>
            <path d="M211.346,24.143 C210.594,24.143 209.946,24.557 209.597,25.166 L168.845,25.166 C168.496,24.557 167.848,24.143 167.096,24.143 C165.979,24.143 165.073,25.049 165.073,26.166 C165.073,27.284 165.979,28.19 167.096,28.19 C167.848,28.19 168.496,27.775 168.845,27.166 L209.597,27.166 C209.946,27.775 210.594,28.19 211.346,28.19 C212.464,28.19 213.369,27.284 213.369,26.166 C213.369,25.049 212.464,24.143 211.346,24.143" id="Fill-6"></path>
            <path d="M86.469,12.648 C87.586,12.648 88.492,11.742 88.492,10.625 C88.492,9.507 87.586,8.601 86.469,8.601 C85.717,8.601 85.069,9.016 84.72,9.625 L3.773,9.625 C3.424,9.016 2.775,8.601 2.023,8.601 C0.906,8.601 -1.42108547e-14,9.507 -1.42108547e-14,10.625 C-1.42108547e-14,11.742 0.906,12.648 2.023,12.648 C2.775,12.648 3.424,12.233 3.773,11.625 L84.72,11.625 C85.069,12.233 85.717,12.648 86.469,12.648" id="Fill-7"></path>
            <path d="M61.844,24.143 C61.092,24.143 60.444,24.557 60.095,25.166 L19.343,25.166 C18.994,24.557 18.345,24.143 17.594,24.143 C16.476,24.143 15.57,25.049 15.57,26.166 C15.57,27.284 16.476,28.19 17.594,28.19 C18.345,28.19 18.994,27.775 19.343,27.166 L60.095,27.166 C60.443,27.775 61.092,28.19 61.844,28.19 C62.961,28.19 63.867,27.284 63.867,26.166 C63.867,25.049 62.961,24.143 61.844,24.143" id="Fill-8"></path>
        </g>
    </g>
</svg>