<?xml version="1.0" encoding="UTF-8"?>
<svg width="480px" height="252px" viewBox="0 0 480 252" version="1.1" xmlns="http://www.w3.org/2000/svg" xmlns:xlink="http://www.w3.org/1999/xlink">
    <!-- Generator: Sketch 59.1 (86144) - https://sketch.com -->
    <title>Rey</title>
    <desc>Created with Sketch.</desc>
    <g id="Page-1" stroke="none" stroke-width="1" fill="none" fill-rule="evenodd">
        <path d="M118.600005,240.8 L107.400005,239.6 L108.535808,237.441974 C109.560086,235.502882 110.881478,233.015985 112.5,229.981262 L116.989164,221.571675 C120.13211,215.669124 123.702366,208.911943 127.700005,201.3 L128.977136,198.860672 C133.473556,190.246284 138.247806,180.826138 143.300005,170.6 C148.833366,159.399944 154.199979,148.000058 159.400005,136.4 C156.466657,135.73333 153.466687,135.166669 150.400005,134.7 C147.333323,134.233331 144.066689,133.866668 140.600005,133.6 C139.666667,133.466666 139.300004,132.966671 139.5,132.1 C139.700006,131.233329 140.066669,130.866666 140.600005,131 C147.933375,130.866666 155.199969,130.46667 162.400005,129.8 C168.133367,116.866602 173.266649,104.233395 177.800005,91.9 C182.333361,79.566605 185.633328,68.433383 187.700005,58.5 C189.766682,48.566617 190.266677,40.300033 189.200005,33.7 C188.133333,27.099967 184.800033,23.13334 179.200005,21.8 C174.666649,20.733328 168.433378,20.833327 160.5,22.1 C152.566632,23.366673 143.733387,25.133322 134,27.4 C124.266623,29.666678 114.000059,32.199986 103.200005,35 C92.3999507,37.800014 81.7667237,40.166657 71.3000047,42.1 C60.8332857,44.033343 50.9667177,45.299997 41.7000047,45.9 C32.4332917,46.500003 24.5000377,45.766677 17.9000047,43.7 C11.2999717,41.633323 6.4000207,37.93336 3.2000047,32.6 C-4.38959489e-07,27.26664 -0.800003303,19.666716 0.800004697,9.8 C0.533336697,9.399998 0.333338697,8.700005 0.200004697,7.7 C0.0666706968,6.699995 0.100003697,5.666672 0.300004697,4.6 C0.499999561,3.533328 0.900001697,2.6 1.49999956,1.8 C2.1000077,0.999996 3.0666647,0.6 4.4000047,0.6 C5.8666787,0.6 6.7000037,1.033329 6.9000047,1.9 C7.1000057,2.766671 6.99999956,3.733328 6.6000047,4.8 C6.2000027,5.866672 5.6666747,6.899995 4.99999956,7.9 C4.3333347,8.900005 3.8666727,9.466666 3.6000047,9.6 C1.99999956,18.93338 2.7666557,26.066642 5.9000047,31 C9.0333537,35.933358 13.8333057,39.366657 20.3000047,41.3 C26.7667037,43.233343 34.5666257,43.86667 43.7000047,43.2 C52.8333837,42.53333 62.4999537,41.233343 72.7000047,39.3 C82.9000557,37.366657 93.3332847,35.033347 104,32.3 C113.95561,29.7488761 123.475525,27.3720085 132.559991,25.1693352 L134.5,24.7 C143.746427,22.4681048 152.169286,20.6937039 159.768809,19.3767493 L160.800005,19.2 C168.666711,17.86666 174.933315,17.666662 179.600005,18.6 C186.933375,20.066674 191.76666,24.1333 194.100005,30.8 C196.43335,37.4667 197.000011,45.866616 195.800005,56 C194.599999,66.133384 191.966692,77.466604 187.900005,90 C183.833318,102.533396 179.066699,115.399934 173.600005,128.6 L177.200005,128 C184.933377,112.533256 193.033296,97.600072 201.5,83.2 C209.966714,68.799928 218.633294,56.100055 227.5,45.1 C236.366716,34.099945 245.399959,25.400032 254.600005,19 C263.800051,12.599968 272.999959,9.666664 282.200005,10.2 C293.000059,10.333334 301.299976,12.133316 307.100005,15.6 C312.900034,19.066684 316.63333,23.533306 318.300005,29 C319.96668,34.466694 319.63335,40.733298 317.300005,47.8 C314.96666,54.866702 311.000033,62.06663 305.400005,69.4 C299.799977,76.73337 292.733381,83.933298 284.200005,91 C275.666629,98.066702 265.966726,104.466638 255.100005,110.2 C244.233284,115.933362 232.400069,120.633315 219.600005,124.3 C206.799941,127.966685 193.333409,130.066664 179.200005,130.6 C178.607409,131.666672 178.120163,132.601644 177.738274,133.404937 L177.600005,133.7 C177.200003,134.566671 176.666675,135.6 176,136.8 C185.066717,139.066678 193.066637,142.53331 200,147.2 C206.933373,151.86669 213.066645,157.233303 218.400005,163.3 C223.733365,169.366697 228.466651,175.866632 232.600005,182.8 C236.388913,189.155587 239.897678,195.399051 243.126385,201.530549 L246.575007,208.13751 C249.125008,213.012508 251.599991,217.699978 254,222.2 C257.200021,228.20003 260.566654,233.333312 264.100005,237.6 C267.633356,241.866688 271.466651,244.966657 275.600005,246.9 C279.733359,248.833343 284.533311,249.13334 290,247.8 C290.266673,248.066668 290.5,248.53333 290.700005,249.2 C290.900006,249.86667 290.466677,250.333332 289.400005,250.6 C282.333303,252.333342 276.166698,252.366675 270.900005,250.7 C265.633312,249.033325 260.900026,246.133354 256.700005,242 C252.499984,237.866646 248.666689,232.80003 245.200005,226.8 C242.022211,221.299972 238.87247,215.491922 235.750702,209.375701 L234.900005,207.7 C231.5,200.966633 227.933357,194.100035 224.200005,187.1 C220.466653,180.099965 216.233362,173.533364 211.5,167.4 C206.766648,161.266636 201.400035,155.833357 195.400005,151.1 C189.399975,146.366643 182.333379,142.866678 174.200005,140.6 L170.706636,147.822285 C166.86028,155.788435 163.131133,163.559226 159.519153,171.134749 L155.092857,180.436235 C149.892841,191.33593 145.095265,201.0571 140.700005,209.6 L139.81836,211.304304 C135.585403,219.441703 131.763138,226.12807 128.351465,231.363572 L128,231.9 C124.266653,237.566695 121.133351,240.533332 118.600005,240.8 Z M282.000005,13.4 C273.066627,12.999998 264.200049,15.866636 255.400005,22 C246.599961,28.133364 237.933381,36.499947 229.400005,47.1 C220.866629,57.700053 212.500046,69.966597 204.300005,83.9 C196.099964,97.833403 188.200043,112.399924 180.600005,127.6 C192.200063,127.066664 203.433284,125.033351 214.300005,121.5 C225.166726,117.966649 235.399957,113.566693 245.000005,108.3 C254.600053,103.033307 263.333299,97.100033 271.200005,90.5 C279.066711,83.899967 285.799977,77.166701 291.400005,70.3 C297.000033,63.433299 301.266657,56.733366 304.200005,50.2 C307.133353,43.666634 308.366674,37.766693 307.900005,32.5 C307.433336,27.233307 305.133359,22.866684 301.000005,19.4 C296.866651,15.933316 290.533381,13.933336 282.000005,13.4 Z M169.200005,139 C164.533315,149.533386 159.766696,159.833283 154.900005,169.9 L152.486109,174.875014 C148.761414,182.523171 145.1779,189.747811 141.735502,196.549068 L139.861248,200.239706 C136.472203,206.895302 133.328179,212.979191 130.429121,218.491485 L120.400005,237.4 L120.400005,237.4 C122.533349,235.799992 125.299988,232.066696 128.700005,226.2 L129.41059,224.965275 C132.640326,219.314843 136.303432,212.393144 140.400005,204.2 L142.00129,200.98303 C145.957776,192.999658 150.223982,184.138715 154.800005,174.4 C160.000031,163.333278 165.533309,151.80006 171.400005,139.8 C171.000003,139.533332 170.266677,139.266668 169.200005,139 Z M172.400005,131.4 L170.800005,135.2 C171.200007,135.333334 171.633336,135.433333 172.100005,135.5 C172.566674,135.566667 173.000003,135.733332 173.400005,136 L175.800005,131 C175.133335,131 174.566674,131.033333 174.100005,131.1 L173.600004,131.177778 C173.24445,131.237037 172.844451,131.311111 172.400005,131.4 Z M160.800005,133.6 L161.200005,132.4 C160.266667,132.533334 159.366676,132.633333 158.500005,132.7 C157.633334,132.766667 156.733343,132.8 155.800005,132.8 C156.600009,133.066668 157.400001,133.233333 158.200005,133.3 C159.000009,133.366667 159.866667,133.466666 160.800005,133.6 Z M310.800005,156.4 C315.866697,156.933336 321.56664,155.966679 327.900005,153.5 C334.23337,151.033321 340.56664,147.866686 346.900005,144 C353.23337,140.133314 359.299976,136.033355 365.100005,131.7 L367.925013,129.580549 C372.508353,126.126841 376.466655,123.06668 379.800005,120.4 L381.400005,122.6 L379.388889,124.186115 C375.907407,126.917597 371.777806,130.088871 367.000005,133.7 C361.266643,138.033355 355.133371,142.166647 348.600005,146.1 C342.066639,150.033353 335.500038,153.366653 328.900005,156.1 C322.299972,158.833347 316.266699,160.133334 310.800005,160 C306.933319,159.599998 303.966682,158.033347 301.900005,155.3 C299.833328,152.566653 298.566674,149.266686 298.100005,145.4 C297.633336,141.533314 297.966666,137.400022 299.100005,133 C300.233344,128.599978 302.133325,124.600018 304.800005,121 C307.466685,117.399982 310.899984,114.466678 315.100005,112.2 C319.300026,109.933322 324.199977,108.999998 329.800005,109.4 C332.600019,109.666668 334.533333,110.899989 335.600005,113.1 C336.666677,115.300011 336.433346,117.699987 334.900005,120.3 C333.366664,122.900013 330.43336,125.333322 326.100005,127.6 C321.76665,129.866678 315.666711,131.199998 307.800005,131.6 C307.133335,133.200008 306.533341,135.33332 306.000005,138 C305.466669,140.66668 305.233338,143.299987 305.300005,145.9 C305.366672,148.500013 305.800001,150.833323 306.600005,152.9 C307.400009,154.966677 308.799995,156.133332 310.800005,156.4 Z M329.800005,112 C327.933329,111.866666 326.066681,112.266662 324.200005,113.2 C322.333329,114.133338 320.500014,115.366659 318.700005,116.9 C316.900005,118.433341 315.233346,120.233323 313.700005,122.3 C312.166664,124.366677 310.733345,126.466656 309.400005,128.6 C315.000033,128.333332 319.599987,127.366675 323.200005,125.7 C326.800023,124.033325 329.400005,122.20001 331.000005,120.2 C332.600013,118.19999 333.266673,116.366675 333.000005,114.7 C332.733337,113.033325 331.666681,112.133334 329.800005,112 Z M428.300005,107.6 C429.30001,107.733334 430.066669,108.166663 430.600005,108.9 C431.133341,109.633337 431.133341,110.733326 430.600005,112.2 C425.533313,128.066746 420.133367,142.99993 414.400005,157 C426.400065,152.866646 437.433288,147.80003 447.500005,141.8 C457.566722,135.79997 467.733287,128.666708 478.000005,120.4 L479.800005,122.6 C475.266649,126.200018 470.200033,129.933314 464.600005,133.8 C458.999977,137.666686 453.200035,141.333316 447.200005,144.8 C441.199975,148.266684 435.300034,151.33332 429.500005,154 C423.699976,156.66668 418.333363,158.599994 413.400005,159.8 C408.466647,171.933394 402.733371,183.233281 396.200005,193.7 C389.666639,204.166719 382.700042,213.166629 375.300005,220.7 C367.899968,228.233371 360.233378,234.066646 352.300005,238.2 C344.366632,242.333354 336.600043,244.133336 329.000005,243.6 C321.933303,243.066664 316.833354,240.933352 313.700005,237.2 C310.566656,233.466648 309.266669,228.866694 309.800005,223.4 C310.333341,217.933306 312.76665,211.933366 317.100005,205.4 C321.43336,198.866634 327.566632,192.500031 335.500005,186.3 C343.433378,180.099969 353.23328,174.433359 364.900005,169.3 C376.56673,164.166641 389.999929,160.26668 405.200005,157.6 C407.866685,150.399964 410.266661,143.533366 412.400005,137 L413.504506,133.597222 C415.183862,128.39122 416.682351,123.592179 418.000005,119.2 C415.066657,122.933352 412.066687,126.833313 409.000005,130.9 C405.933323,134.966687 402.766688,138.699983 399.500005,142.1 C396.233322,145.500017 392.900022,148.266656 389.500005,150.4 C386.099988,152.533344 382.600023,153.533333 379.000005,153.4 C376.733327,153.266666 374.966678,152.266676 373.700005,150.4 C372.433332,148.533333 371.766672,145.966683 371.700005,142.7 C371.633338,139.433317 372.299998,135.600022 373.700005,131.2 C375.100012,126.799978 377.399989,122.066692 380.600005,117 C381.266675,116.066662 382.566662,115.633333 384.500005,115.7 C386.433348,115.766667 388.266663,116.266662 390.000005,117.2 C389.621055,117.578949 388.942946,118.586142 387.965656,120.221605 L387.800005,120.5 C386.733333,122.300009 385.600011,124.399988 384.400005,126.8 C383.199999,129.200012 382.033344,131.766653 380.900005,134.5 C379.766666,137.233347 378.900008,139.766655 378.300005,142.1 C377.700002,144.433345 377.500004,146.366659 377.700005,147.9 C377.900006,149.433341 378.733331,150.2 380.200005,150.2 C382.600017,150.2 385.233324,149.333342 388.100005,147.6 C390.966686,145.866658 393.799991,143.600014 396.600005,140.8 C399.400019,137.999986 402.133325,134.93335 404.800005,131.6 C407.466685,128.26665 409.899994,125.066682 412.100005,122 L413.022457,120.706118 C414.676201,118.371421 416.12415,116.242524 417.36633,114.31939 L418.710212,112.210426 C419.69706,110.647916 420.393653,109.511115 420.800005,108.8 C422.000011,108.399998 423.299998,108.066668 424.700005,107.8 C426.100012,107.533333 427.3,107.466666 428.300005,107.6 Z M404.000005,160.6 C389.066597,163.400014 376.066727,167.299975 365.000005,172.3 C353.933283,177.300025 344.666709,182.699971 337.200005,188.5 C329.733301,194.300029 324.000025,200.233303 320.000005,206.3 C315.999985,212.366697 313.733341,217.899975 313.200005,222.9 C312.666669,227.900025 313.733325,231.966651 316.400005,235.1 C319.066685,238.233349 323.266643,239.866666 329.000005,240 C335.933373,239.866666 343.066635,237.433357 350.400005,232.7 C357.733375,227.966643 364.766638,221.800038 371.500005,214.2 C378.233372,206.599962 384.43331,198.100047 390.100005,188.7 C395.7667,179.299953 400.399987,169.93338 404.000005,160.6 Z" id="Rey" fill="#F50057" fill-rule="nonzero"></path>
    </g>
</svg>